<svg width="806" height="137" viewBox="0 0 806 137" fill="none" xmlns="http://www.w3.org/2000/svg">
<path d="M113.48 35L107.84 25.28H103.64V35H98.1195V7H109.32C111.906 7 114.106 7.90667 115.92 9.72C117.733 11.5333 118.64 13.72 118.64 16.28C118.64 18.0133 118.146 19.6267 117.16 21.12C116.173 22.5867 114.866 23.6933 113.24 24.44L119.44 35H113.48ZM103.64 12.16V20.44H109.32C110.36 20.44 111.253 20.04 112 19.24C112.746 18.4133 113.12 17.4267 113.12 16.28C113.12 15.1333 112.746 14.16 112 13.36C111.253 12.56 110.36 12.16 109.32 12.16H103.64ZM125.794 27.12C126.488 29.6267 128.368 30.88 131.434 30.88C133.408 30.88 134.901 30.2133 135.914 28.88L140.074 31.28C138.101 34.1333 135.194 35.56 131.354 35.56C128.048 35.56 125.394 34.56 123.394 32.56C121.394 30.56 120.394 28.04 120.394 25C120.394 21.9867 121.381 19.48 123.354 17.48C125.328 15.4533 127.861 14.44 130.954 14.44C133.888 14.44 136.301 15.4533 138.194 17.48C140.114 19.5067 141.074 22.0133 141.074 25C141.074 25.6667 141.008 26.3733 140.874 27.12H125.794ZM125.714 23.12H135.914C135.621 21.76 135.008 20.7467 134.074 20.08C133.168 19.4133 132.128 19.08 130.954 19.08C129.568 19.08 128.421 19.44 127.514 20.16C126.608 20.8533 126.008 21.84 125.714 23.12ZM157.055 15H162.735L155.135 35H149.255L141.655 15H147.335L152.175 29L157.055 15ZM181.482 32.52C179.429 34.5467 176.922 35.56 173.962 35.56C171.002 35.56 168.495 34.5467 166.442 32.52C164.415 30.4667 163.402 27.96 163.402 25C163.402 22.04 164.415 19.5467 166.442 17.52C168.495 15.4667 171.002 14.44 173.962 14.44C176.922 14.44 179.429 15.4667 181.482 17.52C183.535 19.5467 184.562 22.04 184.562 25C184.562 27.96 183.535 30.4667 181.482 32.52ZM170.082 28.96C171.122 30 172.415 30.52 173.962 30.52C175.509 30.52 176.802 30 177.842 28.96C178.882 27.92 179.402 26.6 179.402 25C179.402 23.4 178.882 22.08 177.842 21.04C176.802 20 175.509 19.48 173.962 19.48C172.415 19.48 171.122 20 170.082 21.04C169.069 22.08 168.562 23.4 168.562 25C168.562 26.6 169.069 27.92 170.082 28.96ZM188.192 35V5.8H193.352V35H188.192ZM211.275 15H216.435V35H211.275V32.76C210.022 34.6267 208.035 35.56 205.315 35.56C203.128 35.56 201.315 34.8267 199.875 33.36C198.462 31.8933 197.755 29.8667 197.755 27.28V15H202.915V26.64C202.915 27.9733 203.275 29 203.995 29.72C204.715 30.4133 205.675 30.76 206.875 30.76C208.208 30.76 209.275 30.3467 210.075 29.52C210.875 28.6933 211.275 27.4533 211.275 25.8V15ZM232.601 19.96H228.081V28.28C228.081 28.9733 228.254 29.48 228.601 29.8C228.947 30.12 229.454 30.3067 230.121 30.36C230.787 30.3867 231.614 30.3733 232.601 30.32V35C229.054 35.4 226.547 35.0667 225.081 34C223.641 32.9333 222.921 31.0267 222.921 28.28V19.96H219.441V15H222.921V10.96L228.081 9.4V15H232.601V19.96ZM238.799 12.6C237.946 12.6 237.199 12.2933 236.559 11.68C235.946 11.04 235.639 10.2933 235.639 9.44C235.639 8.58667 235.946 7.84 236.559 7.2C237.199 6.56 237.946 6.24 238.799 6.24C239.679 6.24 240.426 6.56 241.039 7.2C241.679 7.84 241.999 8.58667 241.999 9.44C241.999 10.2933 241.679 11.04 241.039 11.68C240.426 12.2933 239.679 12.6 238.799 12.6ZM236.239 35V15H241.399V35H236.239ZM263.162 32.52C261.108 34.5467 258.602 35.56 255.642 35.56C252.682 35.56 250.175 34.5467 248.122 32.52C246.095 30.4667 245.082 27.96 245.082 25C245.082 22.04 246.095 19.5467 248.122 17.52C250.175 15.4667 252.682 14.44 255.642 14.44C258.602 14.44 261.108 15.4667 263.162 17.52C265.215 19.5467 266.242 22.04 266.242 25C266.242 27.96 265.215 30.4667 263.162 32.52ZM251.762 28.96C252.802 30 254.095 30.52 255.642 30.52C257.188 30.52 258.482 30 259.522 28.96C260.562 27.92 261.082 26.6 261.082 25C261.082 23.4 260.562 22.08 259.522 21.04C258.482 20 257.188 19.48 255.642 19.48C254.095 19.48 252.802 20 251.762 21.04C250.748 22.08 250.242 23.4 250.242 25C250.242 26.6 250.748 27.92 251.762 28.96ZM280.992 14.44C283.178 14.44 284.978 15.1733 286.392 16.64C287.832 18.1067 288.552 20.1333 288.552 22.72V35H283.392V23.36C283.392 22.0267 283.032 21.0133 282.312 20.32C281.592 19.6 280.632 19.24 279.432 19.24C278.098 19.24 277.032 19.6533 276.232 20.48C275.432 21.3067 275.032 22.5467 275.032 24.2V35H269.872V15H275.032V17.24C276.285 15.3733 278.272 14.44 280.992 14.44ZM295.518 12.6C294.664 12.6 293.918 12.2933 293.278 11.68C292.664 11.04 292.358 10.2933 292.358 9.44C292.358 8.58667 292.664 7.84 293.278 7.2C293.918 6.56 294.664 6.24 295.518 6.24C296.398 6.24 297.144 6.56 297.758 7.2C298.398 7.84 298.718 8.58667 298.718 9.44C298.718 10.2933 298.398 11.04 297.758 11.68C297.144 12.2933 296.398 12.6 295.518 12.6ZM292.958 35V15H298.118V35H292.958ZM309.12 30.16H318V35H302.2V31.56L310.64 19.84H302.6V15H317.6V18.44L309.12 30.16ZM324.346 12.6C323.492 12.6 322.746 12.2933 322.106 11.68C321.492 11.04 321.186 10.2933 321.186 9.44C321.186 8.58667 321.492 7.84 322.106 7.2C322.746 6.56 323.492 6.24 324.346 6.24C325.226 6.24 325.972 6.56 326.586 7.2C327.226 7.84 327.546 8.58667 327.546 9.44C327.546 10.2933 327.226 11.04 326.586 11.68C325.972 12.2933 325.226 12.6 324.346 12.6ZM321.786 35V15H326.946V35H321.786ZM342.789 14.44C344.975 14.44 346.775 15.1733 348.189 16.64C349.629 18.1067 350.349 20.1333 350.349 22.72V35H345.189V23.36C345.189 22.0267 344.829 21.0133 344.109 20.32C343.389 19.6 342.429 19.24 341.229 19.24C339.895 19.24 338.829 19.6533 338.029 20.48C337.229 21.3067 336.829 22.5467 336.829 24.2V35H331.669V15H336.829V17.24C338.082 15.3733 340.069 14.44 342.789 14.44ZM370.075 15H375.115V34.04C375.115 37.1333 374.088 39.4933 372.035 41.12C370.008 42.7467 367.555 43.56 364.675 43.56C362.515 43.56 360.608 43.1467 358.955 42.32C357.328 41.4933 356.075 40.28 355.195 38.68L359.595 36.16C360.608 38.0267 362.355 38.96 364.835 38.96C366.461 38.96 367.741 38.5333 368.675 37.68C369.608 36.8267 370.075 35.6133 370.075 34.04V31.88C368.555 33.9067 366.421 34.92 363.675 34.92C360.848 34.92 358.475 33.9333 356.555 31.96C354.661 29.96 353.715 27.5333 353.715 24.68C353.715 21.8533 354.675 19.44 356.595 17.44C358.515 15.44 360.875 14.44 363.675 14.44C366.421 14.44 368.555 15.4533 370.075 17.48V15ZM360.435 28.64C361.501 29.6533 362.848 30.16 364.475 30.16C366.101 30.16 367.435 29.6533 368.475 28.64C369.541 27.6 370.075 26.28 370.075 24.68C370.075 23.1067 369.541 21.8133 368.475 20.8C367.435 19.76 366.101 19.24 364.475 19.24C362.848 19.24 361.501 19.76 360.435 20.8C359.395 21.8133 358.875 23.1067 358.875 24.68C358.875 26.28 359.395 27.6 360.435 28.64ZM395.554 29.72H406.234V35H390.034V7H395.554V29.72ZM411.69 12.6C410.836 12.6 410.09 12.2933 409.45 11.68C408.836 11.04 408.53 10.2933 408.53 9.44C408.53 8.58667 408.836 7.84 409.45 7.2C410.09 6.56 410.836 6.24 411.69 6.24C412.57 6.24 413.316 6.56 413.93 7.2C414.57 7.84 414.89 8.58667 414.89 9.44C414.89 10.2933 414.57 11.04 413.93 11.68C413.316 12.2933 412.57 12.6 411.69 12.6ZM409.13 35V15H414.29V35H409.13ZM430.132 14.44C432.319 14.44 434.119 15.1733 435.532 16.64C436.972 18.1067 437.692 20.1333 437.692 22.72V35H432.532V23.36C432.532 22.0267 432.172 21.0133 431.452 20.32C430.732 19.6 429.772 19.24 428.572 19.24C427.239 19.24 426.172 19.6533 425.372 20.48C424.572 21.3067 424.172 22.5467 424.172 24.2V35H419.012V15H424.172V17.24C425.426 15.3733 427.412 14.44 430.132 14.44ZM460.538 35H454.538L447.258 25.92V35H442.098V7H447.258V23.8L454.138 15H460.298L452.258 24.88L460.538 35ZM496.914 31.36C494.087 34.16 490.647 35.56 486.594 35.56C482.541 35.56 479.101 34.16 476.274 31.36C473.474 28.5333 472.074 25.08 472.074 21C472.074 16.92 473.474 13.48 476.274 10.68C479.101 7.85333 482.541 6.44 486.594 6.44C490.647 6.44 494.087 7.85333 496.914 10.68C499.741 13.48 501.154 16.92 501.154 21C501.154 25.08 499.741 28.5333 496.914 31.36ZM480.154 27.6C481.887 29.3067 484.034 30.16 486.594 30.16C489.154 30.16 491.301 29.3067 493.034 27.6C494.767 25.8667 495.634 23.6667 495.634 21C495.634 18.3333 494.767 16.1333 493.034 14.4C491.301 12.6667 489.154 11.8 486.594 11.8C484.034 11.8 481.887 12.6667 480.154 14.4C478.421 16.1333 477.554 18.3333 477.554 21C477.554 23.6667 478.421 25.8667 480.154 27.6ZM516.434 14.44C519.127 14.44 521.42 15.4667 523.314 17.52C525.234 19.5467 526.194 22.04 526.194 25C526.194 27.96 525.234 30.4667 523.314 32.52C521.42 34.5467 519.127 35.56 516.434 35.56C513.634 35.56 511.474 34.5867 509.954 32.64V43H504.794V15H509.954V17.36C511.474 15.4133 513.634 14.44 516.434 14.44ZM511.514 29.08C512.554 30.12 513.874 30.64 515.474 30.64C517.074 30.64 518.394 30.12 519.434 29.08C520.5 28.0133 521.034 26.6533 521.034 25C521.034 23.3467 520.5 22 519.434 20.96C518.394 19.8933 517.074 19.36 515.474 19.36C513.874 19.36 512.554 19.8933 511.514 20.96C510.474 22 509.954 23.3467 509.954 25C509.954 26.6533 510.474 28.0133 511.514 29.08ZM540.843 19.96H536.323V28.28C536.323 28.9733 536.496 29.48 536.843 29.8C537.19 30.12 537.696 30.3067 538.363 30.36C539.03 30.3867 539.856 30.3733 540.843 30.32V35C537.296 35.4 534.79 35.0667 533.323 34C531.883 32.9333 531.163 31.0267 531.163 28.28V19.96H527.683V15H531.163V10.96L536.323 9.4V15H540.843V19.96ZM547.041 12.6C546.188 12.6 545.441 12.2933 544.801 11.68C544.188 11.04 543.881 10.2933 543.881 9.44C543.881 8.58667 544.188 7.84 544.801 7.2C545.441 6.56 546.188 6.24 547.041 6.24C547.921 6.24 548.668 6.56 549.281 7.2C549.921 7.84 550.241 8.58667 550.241 9.44C550.241 10.2933 549.921 11.04 549.281 11.68C548.668 12.2933 547.921 12.6 547.041 12.6ZM544.481 35V15H549.641V35H544.481ZM576.484 14.44C578.777 14.44 580.604 15.1867 581.964 16.68C583.351 18.1733 584.044 20.1733 584.044 22.68V35H578.884V23.04C578.884 21.84 578.591 20.9067 578.004 20.24C577.417 19.5733 576.591 19.24 575.524 19.24C574.351 19.24 573.431 19.6267 572.764 20.4C572.124 21.1733 571.804 22.2933 571.804 23.76V35H566.644V23.04C566.644 21.84 566.351 20.9067 565.764 20.24C565.177 19.5733 564.351 19.24 563.284 19.24C562.137 19.24 561.217 19.6267 560.524 20.4C559.857 21.1733 559.524 22.2933 559.524 23.76V35H554.364V15H559.524V17.12C560.724 15.3333 562.577 14.44 565.084 14.44C567.537 14.44 569.351 15.4 570.524 17.32C571.857 15.4 573.844 14.44 576.484 14.44ZM590.986 12.6C590.133 12.6 589.386 12.2933 588.746 11.68C588.133 11.04 587.826 10.2933 587.826 9.44C587.826 8.58667 588.133 7.84 588.746 7.2C589.386 6.56 590.133 6.24 590.986 6.24C591.866 6.24 592.613 6.56 593.226 7.2C593.866 7.84 594.186 8.58667 594.186 9.44C594.186 10.2933 593.866 11.04 593.226 11.68C592.613 12.2933 591.866 12.6 590.986 12.6ZM588.426 35V15H593.586V35H588.426ZM604.589 30.16H613.469V35H597.669V31.56L606.109 19.84H598.069V15H613.069V18.44L604.589 30.16ZM631.205 15H636.365V35H631.205V32.64C629.658 34.5867 627.485 35.56 624.685 35.56C622.018 35.56 619.725 34.5467 617.805 32.52C615.911 30.4667 614.965 27.96 614.965 25C614.965 22.04 615.911 19.5467 617.805 17.52C619.725 15.4667 622.018 14.44 624.685 14.44C627.485 14.44 629.658 15.4133 631.205 17.36V15ZM621.685 29.08C622.725 30.12 624.045 30.64 625.645 30.64C627.245 30.64 628.565 30.12 629.605 29.08C630.671 28.0133 631.205 26.6533 631.205 25C631.205 23.3467 630.671 22 629.605 20.96C628.565 19.8933 627.245 19.36 625.645 19.36C624.045 19.36 622.725 19.8933 621.685 20.96C620.645 22 620.125 23.3467 620.125 25C620.125 26.6533 620.645 28.0133 621.685 29.08ZM652.484 19.96H647.964V28.28C647.964 28.9733 648.137 29.48 648.484 29.8C648.83 30.12 649.337 30.3067 650.004 30.36C650.67 30.3867 651.497 30.3733 652.484 30.32V35C648.937 35.4 646.43 35.0667 644.964 34C643.524 32.9333 642.804 31.0267 642.804 28.28V19.96H639.324V15H642.804V10.96L647.964 9.4V15H652.484V19.96ZM658.682 12.6C657.828 12.6 657.082 12.2933 656.442 11.68C655.828 11.04 655.522 10.2933 655.522 9.44C655.522 8.58667 655.828 7.84 656.442 7.2C657.082 6.56 657.828 6.24 658.682 6.24C659.562 6.24 660.308 6.56 660.922 7.2C661.562 7.84 661.882 8.58667 661.882 9.44C661.882 10.2933 661.562 11.04 660.922 11.68C660.308 12.2933 659.562 12.6 658.682 12.6ZM656.122 35V15H661.282V35H656.122ZM683.045 32.52C680.991 34.5467 678.485 35.56 675.525 35.56C672.565 35.56 670.058 34.5467 668.005 32.52C665.978 30.4667 664.965 27.96 664.965 25C664.965 22.04 665.978 19.5467 668.005 17.52C670.058 15.4667 672.565 14.44 675.525 14.44C678.485 14.44 680.991 15.4667 683.045 17.52C685.098 19.5467 686.125 22.04 686.125 25C686.125 27.96 685.098 30.4667 683.045 32.52ZM671.645 28.96C672.685 30 673.978 30.52 675.525 30.52C677.071 30.52 678.365 30 679.405 28.96C680.445 27.92 680.965 26.6 680.965 25C680.965 23.4 680.445 22.08 679.405 21.04C678.365 20 677.071 19.48 675.525 19.48C673.978 19.48 672.685 20 671.645 21.04C670.631 22.08 670.125 23.4 670.125 25C670.125 26.6 670.631 27.92 671.645 28.96ZM700.875 14.44C703.061 14.44 704.861 15.1733 706.275 16.64C707.715 18.1067 708.435 20.1333 708.435 22.72V35H703.275V23.36C703.275 22.0267 702.915 21.0133 702.195 20.32C701.475 19.6 700.515 19.24 699.315 19.24C697.981 19.24 696.915 19.6533 696.115 20.48C695.315 21.3067 694.915 22.5467 694.915 24.2V35H689.755V15H694.915V17.24C696.168 15.3733 698.155 14.44 700.875 14.44Z" fill="white"/>
<rect x="303" y="89" width="200" height="48" rx="24" fill="#005AE2"/>
<path d="M371.016 111.208V111.976C371.016 113.512 370.509 114.771 369.496 115.752C368.483 116.723 367.16 117.208 365.528 117.208C363.8 117.208 362.371 116.648 361.24 115.528C360.12 114.408 359.56 113.032 359.56 111.4C359.56 109.779 360.12 108.408 361.24 107.288C362.371 106.157 363.768 105.592 365.432 105.592C366.477 105.592 367.432 105.832 368.296 106.312C369.16 106.792 369.832 107.437 370.312 108.248L368.728 109.16C368.429 108.627 367.987 108.2 367.4 107.88C366.813 107.549 366.157 107.384 365.432 107.384C364.259 107.384 363.293 107.768 362.536 108.536C361.779 109.304 361.4 110.264 361.4 111.416C361.4 112.568 361.779 113.523 362.536 114.28C363.304 115.037 364.307 115.416 365.544 115.416C366.536 115.416 367.341 115.187 367.96 114.728C368.589 114.259 368.989 113.635 369.16 112.856H365.416V111.208H371.016ZM373.946 113.736C374.074 114.344 374.367 114.813 374.826 115.144C375.285 115.464 375.845 115.624 376.506 115.624C377.423 115.624 378.111 115.293 378.57 114.632L379.994 115.464C379.205 116.627 378.037 117.208 376.49 117.208C375.189 117.208 374.138 116.813 373.338 116.024C372.538 115.224 372.138 114.216 372.138 113C372.138 111.805 372.533 110.808 373.322 110.008C374.111 109.197 375.125 108.792 376.362 108.792C377.535 108.792 378.495 109.203 379.242 110.024C379.999 110.845 380.378 111.843 380.378 113.016C380.378 113.197 380.357 113.437 380.314 113.736H373.946ZM373.93 112.328H378.634C378.517 111.677 378.245 111.187 377.818 110.856C377.402 110.525 376.911 110.36 376.346 110.36C375.706 110.36 375.173 110.536 374.746 110.888C374.319 111.24 374.047 111.72 373.93 112.328ZM386.113 110.664H384.129V114.504C384.129 114.835 384.203 115.075 384.353 115.224C384.502 115.363 384.721 115.443 385.009 115.464C385.307 115.475 385.675 115.469 386.113 115.448V117C384.79 117.16 383.841 117.048 383.265 116.664C382.689 116.269 382.401 115.549 382.401 114.504V110.664H380.929V109H382.401V107.272L384.129 106.76V109H386.113V110.664ZM395.598 117.208C394.521 117.208 393.603 116.963 392.846 116.472C392.099 115.981 391.577 115.309 391.278 114.456L392.862 113.528C393.31 114.787 394.238 115.416 395.646 115.416C396.339 115.416 396.857 115.283 397.198 115.016C397.55 114.739 397.726 114.381 397.726 113.944C397.726 113.485 397.539 113.139 397.166 112.904C396.793 112.659 396.131 112.392 395.182 112.104C394.649 111.944 394.217 111.795 393.886 111.656C393.555 111.517 393.203 111.325 392.83 111.08C392.467 110.824 392.195 110.509 392.014 110.136C391.833 109.763 391.742 109.325 391.742 108.824C391.742 107.832 392.094 107.048 392.798 106.472C393.502 105.885 394.35 105.592 395.342 105.592C396.238 105.592 397.022 105.811 397.694 106.248C398.366 106.685 398.883 107.288 399.246 108.056L397.694 108.952C397.225 107.907 396.441 107.384 395.342 107.384C394.809 107.384 394.382 107.512 394.062 107.768C393.742 108.013 393.582 108.349 393.582 108.776C393.582 109.192 393.742 109.523 394.062 109.768C394.393 110.003 394.985 110.253 395.838 110.52C396.265 110.659 396.574 110.765 396.766 110.84C396.969 110.904 397.246 111.011 397.598 111.16C397.961 111.309 398.233 111.459 398.414 111.608C398.595 111.757 398.787 111.944 398.99 112.168C399.203 112.392 399.353 112.648 399.438 112.936C399.523 113.224 399.566 113.549 399.566 113.912C399.566 114.925 399.198 115.731 398.462 116.328C397.737 116.915 396.782 117.208 395.598 117.208ZM405.269 110.664H403.285V114.504C403.285 114.835 403.36 115.075 403.509 115.224C403.658 115.363 403.877 115.443 404.165 115.464C404.464 115.475 404.832 115.469 405.269 115.448V117C403.946 117.16 402.997 117.048 402.421 116.664C401.845 116.269 401.557 115.549 401.557 114.504V110.664H400.085V109H401.557V107.272L403.285 106.76V109H405.269V110.664ZM412.844 109H414.572V117H412.844V115.848C412.193 116.755 411.26 117.208 410.044 117.208C408.945 117.208 408.007 116.803 407.228 115.992C406.449 115.171 406.06 114.173 406.06 113C406.06 111.816 406.449 110.819 407.228 110.008C408.007 109.197 408.945 108.792 410.044 108.792C411.26 108.792 412.193 109.24 412.844 110.136V109ZM408.508 114.84C408.988 115.32 409.591 115.56 410.316 115.56C411.041 115.56 411.644 115.32 412.124 114.84C412.604 114.349 412.844 113.736 412.844 113C412.844 112.264 412.604 111.656 412.124 111.176C411.644 110.685 411.041 110.44 410.316 110.44C409.591 110.44 408.988 110.685 408.508 111.176C408.028 111.656 407.788 112.264 407.788 113C407.788 113.736 408.028 114.349 408.508 114.84ZM418.314 110.344C418.751 109.352 419.573 108.856 420.778 108.856V110.728C420.117 110.685 419.541 110.845 419.05 111.208C418.559 111.56 418.314 112.147 418.314 112.968V117H416.586V109H418.314V110.344ZM426.722 110.664H424.738V114.504C424.738 114.835 424.813 115.075 424.962 115.224C425.111 115.363 425.33 115.443 425.618 115.464C425.917 115.475 426.285 115.469 426.722 115.448V117C425.399 117.16 424.45 117.048 423.874 116.664C423.298 116.269 423.01 115.549 423.01 114.504V110.664H421.538V109H423.01V107.272L424.738 106.76V109H426.722V110.664ZM429.321 113.736C429.449 114.344 429.742 114.813 430.201 115.144C430.66 115.464 431.22 115.624 431.881 115.624C432.798 115.624 433.486 115.293 433.945 114.632L435.369 115.464C434.58 116.627 433.412 117.208 431.865 117.208C430.564 117.208 429.513 116.813 428.713 116.024C427.913 115.224 427.513 114.216 427.513 113C427.513 111.805 427.908 110.808 428.697 110.008C429.486 109.197 430.5 108.792 431.737 108.792C432.91 108.792 433.87 109.203 434.617 110.024C435.374 110.845 435.753 111.843 435.753 113.016C435.753 113.197 435.732 113.437 435.689 113.736H429.321ZM429.305 112.328H434.009C433.892 111.677 433.62 111.187 433.193 110.856C432.777 110.525 432.286 110.36 431.721 110.36C431.081 110.36 430.548 110.536 430.121 110.888C429.694 111.24 429.422 111.72 429.305 112.328ZM443.563 105.8H445.291V117H443.563V115.848C442.912 116.755 441.979 117.208 440.763 117.208C439.664 117.208 438.725 116.803 437.947 115.992C437.168 115.171 436.779 114.173 436.779 113C436.779 111.816 437.168 110.819 437.947 110.008C438.725 109.197 439.664 108.792 440.763 108.792C441.979 108.792 442.912 109.24 443.563 110.136V105.8ZM439.227 114.84C439.707 115.32 440.309 115.56 441.035 115.56C441.76 115.56 442.363 115.32 442.843 114.84C443.323 114.349 443.563 113.736 443.563 113C443.563 112.264 443.323 111.656 442.843 111.176C442.363 110.685 441.76 110.44 441.035 110.44C440.309 110.44 439.707 110.685 439.227 111.176C438.747 111.656 438.507 112.264 438.507 113C438.507 113.736 438.747 114.349 439.227 114.84Z" fill="white"/>
</svg>
